<svg width="41" height="49" viewBox="0 0 41 49" fill="none" xmlns="http://www.w3.org/2000/svg">
<path d="M17.2038 1.97746C16.6347 2.96944 16.5015 4.24949 16.7497 5.43399C17.3175 8.14371 17.4468 12.2995 17.4681 15.3346C17.4698 15.5642 17.4672 15.7953 17.4617 16.0272C17.4515 16.4562 17.5547 16.8749 17.7544 17.2222C18.4585 18.4461 19.2402 20.0366 19.7487 21.7681C20.0058 22.6432 20.7591 23.1121 21.4647 22.8373C22.9779 22.2478 25.5588 21.3785 28.0497 21.1774C28.8999 21.1088 29.5202 20.1713 29.4289 19.1002L29.4271 19.0795C28.8039 11.8125 25.9434 5.52558 21.8006 1.20134C20.4208 -0.23916 18.3164 0.0375395 17.2037 1.97729L17.2038 1.97746Z" fill="url(#paint0_linear_144_20)"/>
<path d="M16.0445 26.6535C16.5517 26.1472 17.0796 25.6879 17.598 25.2775C18.4595 24.5955 18.7962 23.2125 18.3552 22.0544C17.8868 20.8243 17.3202 19.67 16.6672 18.6076C14.4362 14.9779 10.5963 13.5331 7.187 15.1302C7.15379 15.1457 7.12058 15.1617 7.08722 15.1776C6.39193 15.5128 6.35471 16.7291 7.02148 17.1466C10.1524 19.1074 12.4355 23.0058 12.7957 27.7266C12.8154 27.9841 12.8286 28.2406 12.8359 28.4955C12.8547 29.1503 13.4696 29.4751 13.8511 29.0315C15.0417 27.6459 16.0446 26.6535 16.0446 26.6535L16.0445 26.6535Z" fill="url(#paint1_linear_144_20)"/>
<path d="M40.2368 30.4631C40.0761 28.5319 38.98 27.0381 37.5164 25.9841C34.2542 23.6342 30.5984 22.7335 26.5826 23.2233C23.6315 23.5831 20.8931 24.7252 18.4759 26.4743C16.4114 27.966 13.7602 31.2066 12.3345 33.0784C9.47708 36.8287 6.44243 39.9064 2.17335 41.2353C1.03898 41.5879 0.236178 42.8662 0.215503 44.3439C0.213987 44.4705 0.218397 44.6 0.227906 44.7253C0.325619 46.0062 1.01804 47.1055 2.00564 47.5225C3.99203 48.3587 6.09584 48.8363 8.26708 48.8912C9.26406 48.9207 10.2763 48.8605 11.298 48.7042C16.9804 47.8391 21.8899 44.1632 25.2625 38.9111C25.264 38.9089 25.4631 38.5897 25.6792 38.2333C26.2451 37.3001 26.8636 36.4149 27.5657 35.6433C29.6849 33.3138 32.394 31.7854 35.4151 31.4168C36.7456 31.2546 38.0493 31.3396 39.3 31.6374C39.828 31.7632 40.2949 31.1959 40.2416 30.5199C40.2398 30.5011 40.2384 30.4825 40.2368 30.4637L40.2368 30.4631ZM13.1997 43.9386C11.9555 44.4312 10.7948 44.2452 10.6708 43.7441C10.5466 43.243 11.6272 42.6624 12.8715 42.1698C14.1157 41.6772 15.0522 41.4588 15.1763 41.96C15.3005 42.4611 14.4438 43.4461 13.1997 43.9386ZM17.7924 43.8366C16.9007 44.4484 15.9988 44.527 15.778 44.0126C15.5573 43.4981 16.2202 42.8628 17.112 42.251C18.0036 41.6394 18.7865 41.283 19.0072 41.7976C19.228 42.3121 18.6842 43.225 17.7924 43.8366Z" fill="url(#paint2_linear_144_20)"/>
<defs>
<linearGradient id="paint0_linear_144_20" x1="25.4451" y1="22.9157" x2="25.4451" y2="-2.01785" gradientUnits="userSpaceOnUse">
<stop stop-color="#0D707D"/>
<stop offset="1" stop-color="#D9D9D9" stop-opacity="0"/>
</linearGradient>
<linearGradient id="paint1_linear_144_20" x1="12.5459" y1="14.4849" x2="12.5459" y2="29.2357" gradientUnits="userSpaceOnUse">
<stop stop-color="#0D707D"/>
<stop offset="1" stop-color="#D9D9D9" stop-opacity="0"/>
</linearGradient>
<linearGradient id="paint2_linear_144_20" x1="20.2305" y1="23.0942" x2="20.2305" y2="50.8428" gradientUnits="userSpaceOnUse">
<stop stop-color="#0D707D"/>
<stop offset="1" stop-color="#D9D9D9" stop-opacity="0"/>
</linearGradient>
</defs>
</svg>
