<svg width="41" height="49" viewBox="0 0 41 49" fill="none" xmlns="http://www.w3.org/2000/svg">
<path d="M18.3518 14.2389C18.7171 14.3549 19.1005 14.1217 19.1658 13.7442C19.586 11.3143 20.42 3.21651 13.4858 0.722006C12.9881 0.543008 12.4729 0.411087 11.9517 0.322011C11.9451 0.320825 11.9383 0.31964 11.9315 0.318454C10.8992 0.138273 9.92461 0.865605 9.83096 1.90927C9.52157 5.35323 10.1802 11.6458 18.3519 14.2387L18.3518 14.2389Z" fill="url(#paint0_linear_144_125)"/>
<path d="M21.193 14.752C21.3478 14.7742 21.5216 14.7177 21.5896 14.5768C23.9432 9.70006 28.5525 9.09356 29.5622 8.72203C29.8113 8.63041 30.0558 8.53083 30.2864 8.39976C31.9282 7.46768 31.9265 5.91376 31.6891 4.86975C31.5482 4.2508 30.911 3.87468 30.3015 4.05164C21.7732 6.52746 20.8988 12.723 20.8381 14.3236C20.83 14.5368 20.9819 14.7217 21.193 14.752Z" fill="url(#paint1_linear_144_125)"/>
<path d="M34.7438 15.3581C34.7438 15.3581 29.5003 11.8361 23.359 15.5922L22.8059 15.8973C21.2028 16.7821 19.2579 16.782 17.6548 15.8973L17.1018 15.5922C10.9605 11.8361 5.71705 15.3581 5.71705 15.3581C-3.74895 21.554 1.87156 35.2161 1.87156 35.2161C6.12248 44.9154 12.0455 47.843 14.8335 48.7091C15.7248 48.9862 16.6811 48.9586 17.5549 48.6306L18.8685 48.1374C19.7467 47.8079 20.7145 47.8079 21.5928 48.1374L22.9064 48.6306C23.7802 48.9586 24.7363 48.986 25.6276 48.7091C28.4154 47.843 34.3384 44.9155 38.5896 35.2161C38.5896 35.2161 44.2098 21.554 34.7439 15.3581H34.7438ZM9.04314 21.9191C7.73225 23.4796 6.6718 24.7465 5.66793 23.9031C4.66424 23.0598 4.46811 20.7374 5.77902 19.1769C7.08991 17.6165 9.41148 17.4091 10.4151 18.2522C11.419 19.0956 10.354 20.3587 9.04314 21.9191Z" fill="url(#paint2_linear_144_125)"/>
<defs>
<linearGradient id="paint0_linear_144_125" x1="14.6046" y1="0.291016" x2="14.6046" y2="14.2688" gradientUnits="userSpaceOnUse">
<stop stop-color="#0D707D"/>
<stop offset="1" stop-color="#D9D9D9" stop-opacity="0"/>
</linearGradient>
<linearGradient id="paint1_linear_144_125" x1="26.32" y1="4.00781" x2="26.32" y2="14.7567" gradientUnits="userSpaceOnUse">
<stop stop-color="#0D707D"/>
<stop offset="1" stop-color="#D9D9D9" stop-opacity="0"/>
</linearGradient>
<linearGradient id="paint2_linear_144_125" x1="20.2305" y1="15.3593" x2="20.2305" y2="52.7871" gradientUnits="userSpaceOnUse">
<stop stop-color="#0D707D"/>
<stop offset="1" stop-color="#D9D9D9" stop-opacity="0"/>
</linearGradient>
</defs>
</svg>
