<svg width="41" height="49" viewBox="0 0 41 49" fill="none" xmlns="http://www.w3.org/2000/svg">
<path d="M29.6062 10.7862C35.4226 8.92157 36.5533 3.9453 36.7063 1.11609C36.74 0.49396 36.004 0.0730341 35.444 0.410918C34.2621 1.1242 32.8268 1.05918 32.8268 1.05918C22.0498 -0.0710836 18.9767 5.94696 18.1337 8.76554C17.9969 9.22296 18.3895 9.66311 18.8967 9.63436C19.338 9.60928 19.7826 9.5963 20.2305 9.5963C22.8188 9.5963 25.301 10.0172 27.6078 10.7841C28.2531 10.9985 28.958 10.9942 29.6063 10.7864L29.6062 10.7862Z" fill="url(#paint0_linear_144_66)"/>
<path d="M20.2305 11.4854C9.17628 11.4854 0.21521 19.8605 0.21521 30.1919C0.21521 40.5233 9.17628 48.8988 20.2305 48.8988C31.2847 48.8988 40.2458 40.5237 40.2458 30.1923C40.2458 19.8609 31.2847 11.4854 20.2305 11.4854ZM10.8169 21.4398C9.59552 22.7279 8.25681 23.4353 7.41307 22.7365C6.56933 22.0377 6.87531 20.427 8.09688 19.139C9.31821 17.851 10.9922 17.3733 11.8359 18.0722C12.6796 18.771 12.0382 20.1518 10.8169 21.4398V21.4398Z" fill="url(#paint1_linear_144_66)"/>
<defs>
<linearGradient id="paint0_linear_144_66" x1="27.4068" y1="0.291016" x2="27.4068" y2="10.9436" gradientUnits="userSpaceOnUse">
<stop stop-color="#0D707D"/>
<stop offset="1" stop-color="#D9D9D9" stop-opacity="0"/>
</linearGradient>
<linearGradient id="paint1_linear_144_66" x1="20.2305" y1="11.4854" x2="20.2305" y2="51.4507" gradientUnits="userSpaceOnUse">
<stop stop-color="#0D707D"/>
<stop offset="1" stop-color="#D9D9D9" stop-opacity="0"/>
</linearGradient>
</defs>
</svg>
