<?xml version="1.0" standalone="no"?>
<!DOCTYPE svg PUBLIC "-//W3C//DTD SVG 20010904//EN"
 "http://www.w3.org/TR/2001/REC-SVG-20010904/DTD/svg10.dtd">
<svg version="1.0" xmlns="http://www.w3.org/2000/svg"
 width="580.000000pt" height="193.000000pt" viewBox="0 0 580.000000 193.000000"
 preserveAspectRatio="xMidYMid meet">

<g transform="translate(0.000000,193.000000) scale(0.100000,-0.100000)"
fill="#000000" stroke="none">
<path d="M0 965 l0 -965 2900 0 2900 0 0 965 0 965 -2900 0 -2900 0 0 -965z
m5327 208 l-2 -498 -62 -3 -63 -3 0 441 0 440 -430 0 -430 0 0 60 0 60 495 0
495 0 -3 -497z m-4789 -325 l2 -438 430 0 430 0 0 -65 0 -65 -492 2 -493 3 -3
503 -2 503 62 -3 63 -3 3 -437z m537 318 c40 -17 75 -68 75 -109 0 -32 -24
-83 -42 -90 -9 -3 -6 -10 9 -21 25 -19 46 -75 37 -102 -20 -62 -30 -77 -65
-95 -27 -13 -59 -19 -109 -19 l-71 0 3 43 3 42 55 3 c61 4 80 14 80 46 0 39
-18 46 -122 46 l-98 0 0 135 0 135 105 0 c69 0 118 -5 140 -14z m406 -9 c41
-28 59 -60 59 -110 0 -46 -21 -89 -54 -111 l-25 -16 35 -78 c55 -117 55 -112
-6 -112 l-52 0 -41 90 c-30 63 -47 90 -59 90 -16 0 -18 -11 -18 -90 l0 -90
-50 0 -50 0 0 135 0 135 100 0 c98 0 101 1 112 26 22 48 4 59 -111 62 l-101 3
0 44 0 45 114 0 c101 0 117 -2 147 -23z m279 -162 l0 -185 25 0 c23 0 25 -4
25 -40 l0 -40 -100 0 -100 0 0 40 c0 36 3 40 25 40 l25 0 0 185 0 185 50 0 50
0 0 -185z m470 90 l0 -95 -50 0 -50 0 0 50 c0 50 0 50 -32 50 -38 0 -92 -30
-107 -58 -20 -38 -23 -97 -8 -135 24 -57 66 -77 165 -77 l82 0 0 -46 0 -46
-102 4 c-80 3 -112 9 -144 26 -83 43 -121 118 -111 225 12 135 94 195 265 196
l92 1 0 -95z m162 1 l3 -94 78 94 77 94 61 0 c48 0 59 -3 52 -12 -5 -7 -47
-59 -92 -115 l-83 -103 84 -97 c46 -54 88 -104 92 -110 5 -10 -8 -13 -56 -13
l-63 0 -60 75 c-33 41 -62 75 -65 75 -3 -1 -27 -27 -55 -60 -27 -32 -56 -59
-62 -59 -10 -1 -13 47 -13 209 l0 210 50 0 49 0 3 -94z m648 -6 l0 -100 -50 0
-50 0 0 100 0 100 50 0 50 0 0 -100z m260 -125 l0 -225 -50 0 -50 0 0 40 0 40
-80 0 -80 0 0 -40 0 -40 -50 0 -50 0 0 85 0 85 130 0 130 0 0 140 0 140 50 0
50 0 0 -225z m333 47 c38 -97 77 -198 88 -224 l19 -48 -54 0 -54 0 -37 110
c-21 60 -41 107 -46 105 -4 -3 -15 -29 -25 -58 -9 -28 -25 -76 -36 -104 l-19
-53 -50 0 c-27 0 -49 4 -49 9 0 9 157 417 167 434 15 24 35 -12 96 -171z m312
63 l40 -115 25 73 25 72 53 3 52 3 -24 -63 c-111 -295 -132 -337 -149 -295 -2
6 -40 102 -82 212 -43 110 -80 206 -82 213 -4 9 10 12 48 12 l54 0 40 -115z
m485 70 l0 -45 -65 0 -65 0 0 -45 0 -45 96 0 95 0 -3 -42 -3 -43 -92 -3 -93
-3 0 -44 0 -45 65 0 65 0 0 -45 0 -45 -115 0 -115 0 0 225 0 225 115 0 115 0
0 -45z m312 -87 l93 -132 3 132 3 132 49 0 50 0 0 -225 0 -225 -49 0 -50 0
-93 134 -93 134 -3 -84 -3 -84 -49 0 -50 0 0 175 0 175 49 0 50 0 93 -132z"/>
<path d="M930 1051 c0 -51 0 -51 33 -51 103 1 116 83 15 96 l-48 7 0 -52z"/>
</g>
</svg>
