<?xml version="1.0" standalone="no"?>
<!DOCTYPE svg PUBLIC "-//W3C//DTD SVG 20010904//EN"
 "http://www.w3.org/TR/2001/REC-SVG-20010904/DTD/svg10.dtd">
<svg version="1.0" xmlns="http://www.w3.org/2000/svg"
 width="582.000000pt" height="167.000000pt" viewBox="0 0 582.000000 167.000000"
 preserveAspectRatio="xMidYMid meet">

<g transform="translate(0.000000,167.000000) scale(0.100000,-0.100000)"
fill="#000000" stroke="none">
<path d="M4650 1580 l0 -70 510 0 510 0 0 -520 0 -520 70 0 70 0 0 590 0 590
-580 0 -580 0 0 -70z"/>
<path d="M10 605 l0 -585 580 0 580 0 0 65 0 65 -510 0 -510 0 0 520 0 520
-70 0 -70 0 0 -585z"/>
<path d="M510 915 l0 -155 108 0 c123 0 152 -11 152 -60 0 -41 -32 -60 -102
-60 l-58 0 0 -51 0 -51 73 4 c126 7 187 56 187 153 0 40 -5 52 -34 81 l-34 34
29 29 c25 26 29 37 29 86 0 51 -3 60 -33 90 -43 43 -90 55 -214 55 l-103 0 0
-155z m203 54 c54 -15 69 -64 29 -96 -9 -8 -43 -13 -79 -13 l-63 0 0 53 c0 30
3 57 7 60 10 10 63 8 106 -4z"/>
<path d="M970 1021 l0 -51 110 0 c97 0 112 -2 130 -20 25 -25 25 -45 0 -70
-18 -18 -33 -20 -130 -20 l-110 0 0 -160 0 -160 50 0 50 0 0 110 0 110 28 0
c27 0 32 -8 80 -110 l51 -110 50 0 c28 0 51 4 51 9 0 5 -23 58 -51 117 -36 78
-47 110 -37 113 7 2 27 18 45 36 44 44 53 108 24 167 -33 70 -64 82 -213 86
l-128 4 0 -51z"/>
<path d="M1490 850 l0 -220 -30 0 c-29 0 -30 -2 -30 -45 l0 -45 110 0 110 0 0
45 c0 43 -1 45 -30 45 l-30 0 0 220 0 220 -50 0 -50 0 0 -220z"/>
<path d="M1920 1054 c-122 -33 -180 -109 -180 -238 0 -93 14 -139 56 -186 52
-57 119 -81 241 -88 l103 -5 0 52 0 51 -92 0 c-108 0 -150 16 -185 69 -31 46
-32 141 -3 189 24 39 89 71 143 72 l37 0 0 -55 0 -55 50 0 50 0 0 105 0 105
-82 -1 c-46 0 -108 -7 -138 -15z"/>
<path d="M2240 823 l1 -248 26 30 c106 122 114 129 127 114 7 -8 43 -51 80
-96 l68 -83 59 0 c32 0 59 3 59 8 0 4 -47 62 -105 130 l-106 122 106 129 c58
71 105 132 105 135 0 3 -26 6 -58 6 l-58 0 -100 -121 -99 -122 -3 122 -3 121
-49 0 -50 0 0 -247z"/>
<path d="M3010 955 l0 -115 45 0 45 0 0 115 0 115 -45 0 -45 0 0 -115z"/>
<path d="M3310 905 l0 -165 -150 0 -150 0 0 -100 0 -100 45 0 45 0 0 50 0 50
105 0 105 0 0 -50 0 -50 50 0 50 0 0 265 0 265 -50 0 -50 0 0 -165z"/>
<path d="M3704 1054 c-4 -10 -49 -126 -101 -257 -51 -131 -93 -243 -93 -248 0
-5 22 -9 49 -9 l49 0 21 58 c11 31 35 97 52 145 21 59 34 84 40 76 4 -8 29
-73 55 -146 l46 -133 49 0 c27 0 49 4 49 9 0 13 -195 509 -203 518 -4 3 -10
-3 -13 -13z"/>
<path d="M4023 1058 c3 -7 49 -127 103 -266 53 -139 101 -249 105 -245 4 4 44
100 88 213 l80 205 -41 3 c-22 2 -45 1 -52 -1 -6 -3 -24 -43 -41 -91 -16 -47
-32 -86 -36 -86 -3 0 -28 62 -56 138 l-49 137 -53 3 c-41 2 -52 0 -48 -10z"/>
<path d="M4500 805 l0 -265 125 0 125 0 0 50 0 50 -75 0 -75 0 0 60 0 60 105
0 105 0 0 45 0 45 -105 0 -105 0 0 60 0 60 75 0 75 0 0 50 0 50 -125 0 -125 0
0 -265z"/>
<path d="M4910 870 l0 -200 45 0 45 0 0 105 c0 58 3 105 8 105 4 0 61 -77 127
-170 l119 -170 48 0 48 0 0 265 0 265 -50 0 -50 0 -2 -171 -3 -172 -120 171
-120 171 -47 1 -48 0 0 -200z"/>
</g>
</svg>
