<svg width="512" height="512" viewBox="0 0 512 512" style="color:#E8403E" xmlns="http://www.w3.org/2000/svg" class="h-full w-full"><rect width="512" height="512" x="0" y="0" rx="30" fill="transparent" stroke="transparent" stroke-width="0" stroke-opacity="100%" paint-order="stroke"></rect><svg width="512px" height="512px" viewBox="0 0 24 24" fill="#E8403E" x="0" y="0" role="img" style="display:inline-block;vertical-align:middle" xmlns="http://www.w3.org/2000/svg"><g fill="#E8403E"><path fill="currentColor" d="M9.25 3a.75.75 0 0 1 .75-.75h4a.75.75 0 0 1 .75.75v.75H19a.75.75 0 0 1 0 1.5H5a.75.75 0 0 1 0-1.5h4.25V3Z"/><path fill="currentColor" fill-rule="evenodd" d="M6.24 7.945a.5.5 0 0 1 .497-.445h10.526a.5.5 0 0 1 .497.445l.2 1.801a44.213 44.213 0 0 1 0 9.771l-.02.177a2.603 2.603 0 0 1-2.226 2.29a26.788 26.788 0 0 1-7.428 0a2.603 2.603 0 0 1-2.227-2.29l-.02-.177a44.239 44.239 0 0 1 0-9.77l.2-1.802Zm8.29 4.525a.75.75 0 0 1 0 1.06L13.06 15l1.47 1.47a.75.75 0 1 1-1.06 1.06L12 16.06l-1.47 1.47a.75.75 0 1 1-1.06-1.06L10.94 15l-1.47-1.47a.75.75 0 1 1 1.06-1.06L12 13.94l1.47-1.47a.75.75 0 0 1 1.06 0Z" clip-rule="evenodd"/></g></svg></svg>